<?xml version="1.0" encoding="UTF-8" standalone="no"?>
<!DOCTYPE svg PUBLIC "-//W3C//DTD SVG 1.1//EN"
 "http://www.w3.org/Graphics/SVG/1.1/DTD/svg11.dtd">
<!-- Generated by graphviz version 2.40.1 (20161225.0304)
 -->
<!-- Title: %3 Pages: 1 -->
<svg width="1325pt" height="759pt"
 viewBox="0.00 0.00 1324.86 758.63" xmlns="http://www.w3.org/2000/svg" xmlns:xlink="http://www.w3.org/1999/xlink">
<g id="graph0" class="graph" transform="scale(1 1) rotate(0) translate(4 754.6325)">
<title>%3</title>
<polygon fill="#ffffff" stroke="transparent" points="-4,4 -4,-754.6325 1320.8612,-754.6325 1320.8612,4 -4,4"/>
<!-- 0 -->
<g id="node1" class="node">
<title>0</title>
<polygon fill="none" stroke="#000000" points="117.7998,-409.3379 117.7998,-433.5015 83.3166,-450.5878 34.5499,-450.5878 .0667,-433.5015 .0667,-409.3379 34.5499,-392.2516 83.3166,-392.2516 117.7998,-409.3379"/>
<text text-anchor="start" x="22.314" y="-425.2197" font-family="Times,serif" font-size="14.00" fill="#000000">0 </text>
<text text-anchor="middle" x="58.9332" y="-410.2197" font-family="Times,serif" font-size="14.00" fill="#000000">STRING</text>
</g>
<!-- 1 -->
<g id="node2" class="node">
<title>1</title>
<polygon fill="none" stroke="#000000" points="549.1131,-529.9863 549.1131,-554.1499 488.086,-571.2362 401.7805,-571.2362 340.7534,-554.1499 340.7534,-529.9863 401.7805,-512.9 488.086,-512.9 549.1131,-529.9863"/>
<text text-anchor="start" x="374.1252" y="-545.8681" font-family="Times,serif" font-size="14.00" fill="#000000">1 </text>
<text text-anchor="middle" x="444.9332" y="-530.8681" font-family="Times,serif" font-size="14.00" fill="#000000">__WHITESPACE</text>
</g>
<!-- 1&#45;&gt;1 -->
<g id="edge1" class="edge">
<title>1&#45;&gt;1</title>
<path fill="none" stroke="#000000" d="M549.1351,-552.3214C560.0371,-550.3199 567.0231,-546.9021 567.0231,-542.0681 567.0231,-538.8958 564.0145,-536.3334 558.8649,-534.3809"/>
<polygon fill="#000000" stroke="#000000" points="559.697,-530.9808 549.1351,-531.8148 557.9118,-537.7493 559.697,-530.9808"/>
<text text-anchor="middle" x="642.5231" y="-538.3681" font-family="Times,serif" font-size="14.00" fill="#000000">[#009..#010,#013, ]</text>
</g>
<!-- 2 -->
<g id="node3" class="node">
<title>2</title>
<polygon fill="none" stroke="#000000" points="840.0232,-525.239 840.0232,-558.8972 809.5096,-582.6971 766.3569,-582.6971 735.8433,-558.8972 735.8433,-525.239 766.3569,-501.4391 809.5096,-501.4391 840.0232,-525.239"/>
<text text-anchor="start" x="756.5292" y="-553.3681" font-family="Times,serif" font-size="14.00" fill="#000000">2 </text>
<text text-anchor="start" x="756.5292" y="-538.3681" font-family="Times,serif" font-size="14.00" fill="#000000">FLOAT</text>
<text text-anchor="middle" x="787.9332" y="-523.3681" font-family="Times,serif" font-size="14.00" fill="#000000">NUM</text>
</g>
<!-- 2&#45;&gt;2 -->
<g id="edge2" class="edge">
<title>2&#45;&gt;2</title>
<path fill="none" stroke="#000000" d="M840.1691,-553.9325C850.565,-552.5971 857.9782,-548.6423 857.9782,-542.0681 857.9782,-537.8565 854.9358,-534.7199 850.0159,-532.6583"/>
<polygon fill="#000000" stroke="#000000" points="850.7188,-529.2265 840.1691,-530.2037 849.0256,-536.0186 850.7188,-529.2265"/>
<text text-anchor="middle" x="876.9782" y="-538.3681" font-family="Times,serif" font-size="14.00" fill="#000000">[0..9]</text>
</g>
<!-- 9 -->
<g id="node10" class="node">
<title>9</title>
<ellipse fill="none" stroke="#000000" cx="867.9332" cy="-421.4197" rx="27" ry="18"/>
<text text-anchor="middle" x="867.9332" y="-417.7197" font-family="Times,serif" font-size="14.00" fill="#000000">9</text>
</g>
<!-- 2&#45;&gt;9 -->
<g id="edge3" class="edge">
<title>2&#45;&gt;9</title>
<path fill="none" stroke="#000000" d="M813.2457,-503.8942C825.6054,-485.2546 840.1376,-463.3385 851.1139,-446.7851"/>
<polygon fill="#000000" stroke="#000000" points="854.2002,-448.4638 856.8096,-438.1953 848.3662,-444.5954 854.2002,-448.4638"/>
<text text-anchor="middle" x="843.9332" y="-472.3036" font-family="Times,serif" font-size="14.00" fill="#000000">[.]</text>
</g>
<!-- 11 -->
<g id="node12" class="node">
<title>11</title>
<ellipse fill="none" stroke="#000000" cx="803.9332" cy="-214.1679" rx="27" ry="18"/>
<text text-anchor="middle" x="803.9332" y="-210.4679" font-family="Times,serif" font-size="14.00" fill="#000000">11</text>
</g>
<!-- 2&#45;&gt;11 -->
<g id="edge4" class="edge">
<title>2&#45;&gt;11</title>
<path fill="none" stroke="#000000" d="M789.9273,-501.2023C793.2169,-433.7856 799.6994,-300.9344 802.542,-242.68"/>
<polygon fill="#000000" stroke="#000000" points="806.0528,-242.5425 803.0444,-232.3837 799.0611,-242.2012 806.0528,-242.5425"/>
<text text-anchor="middle" x="813.9332" y="-363.1358" font-family="Times,serif" font-size="14.00" fill="#000000">[E,e]</text>
</g>
<!-- 3 -->
<g id="node4" class="node">
<title>3</title>
<polygon fill="none" stroke="#000000" points="1019.9332,-529.9863 1019.9332,-554.1499 1004.117,-571.2362 981.7495,-571.2362 965.9332,-554.1499 965.9332,-529.9863 981.7495,-512.9 1004.117,-512.9 1019.9332,-529.9863"/>
<text text-anchor="start" x="980.4911" y="-545.8681" font-family="Times,serif" font-size="14.00" fill="#000000">3 </text>
<text text-anchor="middle" x="992.9332" y="-530.8681" font-family="Times,serif" font-size="14.00" fill="#000000">ID</text>
</g>
<!-- 3&#45;&gt;3 -->
<g id="edge5" class="edge">
<title>3&#45;&gt;3</title>
<path fill="none" stroke="#000000" d="M1019.7281,-554.4159C1029.7136,-554.8207 1037.9332,-550.7048 1037.9332,-542.0681 1037.9332,-536.6701 1034.7225,-533.0381 1029.8765,-531.172"/>
<polygon fill="#000000" stroke="#000000" points="1030.123,-527.6717 1019.7281,-529.7203 1029.1317,-534.6012 1030.123,-527.6717"/>
<text text-anchor="middle" x="1094.4332" y="-538.3681" font-family="Times,serif" font-size="14.00" fill="#000000">[0..9,A..Z,_,a..z]</text>
</g>
<!-- 4 -->
<g id="node5" class="node">
<title>4</title>
<ellipse fill="none" stroke="#000000" cx="123.9332" cy="-542.0681" rx="27" ry="18"/>
<text text-anchor="middle" x="123.9332" y="-538.3681" font-family="Times,serif" font-size="14.00" fill="#000000">4</text>
</g>
<!-- 4&#45;&gt;0 -->
<g id="edge8" class="edge">
<title>4&#45;&gt;0</title>
<path fill="none" stroke="#000000" d="M114.7582,-525.038C105.6946,-508.2147 91.5155,-481.8966 79.7158,-459.9947"/>
<polygon fill="#000000" stroke="#000000" points="82.6506,-458.0627 74.8262,-450.9191 76.488,-461.3829 82.6506,-458.0627"/>
<text text-anchor="middle" x="100.9332" y="-472.3036" font-family="Times,serif" font-size="14.00" fill="#000000">[&quot;]</text>
</g>
<!-- 4&#45;&gt;4 -->
<g id="edge6" class="edge">
<title>4&#45;&gt;4</title>
<path fill="none" stroke="#000000" d="M144.7633,-553.6697C157.2145,-556.2478 168.9332,-552.3806 168.9332,-542.0681 168.9332,-534.656 162.8793,-530.5735 154.8508,-529.8207"/>
<polygon fill="#000000" stroke="#000000" points="154.5193,-526.3347 144.7633,-530.4665 154.9665,-533.3204 154.5193,-526.3347"/>
<text text-anchor="middle" x="245.9332" y="-538.3681" font-family="Times,serif" font-size="14.00" fill="#000000">[#000..!,#..[,]..#255]</text>
</g>
<!-- 13 -->
<g id="node14" class="node">
<title>13</title>
<ellipse fill="none" stroke="#000000" cx="162.9332" cy="-421.4197" rx="27" ry="18"/>
<text text-anchor="middle" x="162.9332" y="-417.7197" font-family="Times,serif" font-size="14.00" fill="#000000">13</text>
</g>
<!-- 4&#45;&gt;13 -->
<g id="edge7" class="edge">
<title>4&#45;&gt;13</title>
<path fill="none" stroke="#000000" d="M120.9607,-523.9447C119.2044,-508.6842 118.43,-486.5253 124.9332,-468.5036 128.111,-459.6974 133.6819,-451.3161 139.5945,-444.1311"/>
<polygon fill="#000000" stroke="#000000" points="142.5367,-446.0898 146.5694,-436.2925 137.3071,-441.4366 142.5367,-446.0898"/>
<text text-anchor="middle" x="132.9332" y="-472.3036" font-family="Times,serif" font-size="14.00" fill="#000000">[\]</text>
</g>
<!-- 5 -->
<g id="node6" class="node">
<title>5</title>
<polygon fill="none" stroke="#000000" points="1316.7892,-409.3379 1316.7892,-433.5015 1245.9934,-450.5878 1145.8731,-450.5878 1075.0773,-433.5015 1075.0773,-409.3379 1145.8731,-392.2516 1245.9934,-392.2516 1316.7892,-409.3379"/>
<text text-anchor="start" x="1112.3769" y="-425.2197" font-family="Times,serif" font-size="14.00" fill="#000000">5 </text>
<text text-anchor="middle" x="1195.9332" y="-410.2197" font-family="Times,serif" font-size="14.00" fill="#000000">COMMENT_START</text>
</g>
<!-- 6 -->
<g id="node7" class="node">
<title>6</title>
<polygon fill="none" stroke="#000000" points="856.0232,-17.0021 856.0232,-41.1658 825.5096,-58.2521 782.3569,-58.2521 751.8433,-41.1658 751.8433,-17.0021 782.3569,.0842 825.5096,.0842 856.0232,-17.0021"/>
<text text-anchor="start" x="772.5292" y="-32.8839" font-family="Times,serif" font-size="14.00" fill="#000000">6 </text>
<text text-anchor="middle" x="803.9332" y="-17.8839" font-family="Times,serif" font-size="14.00" fill="#000000">FLOAT</text>
</g>
<!-- 6&#45;&gt;6 -->
<g id="edge9" class="edge">
<title>6&#45;&gt;6</title>
<path fill="none" stroke="#000000" d="M856.1691,-38.7912C866.565,-37.6986 873.9782,-34.4628 873.9782,-29.0839 873.9782,-25.6381 870.9358,-23.0718 866.0159,-21.385"/>
<polygon fill="#000000" stroke="#000000" points="866.6669,-17.9458 856.1691,-19.3767 865.2679,-24.8046 866.6669,-17.9458"/>
<text text-anchor="middle" x="892.9782" y="-25.3839" font-family="Times,serif" font-size="14.00" fill="#000000">[0..9]</text>
</g>
<!-- 7 -->
<g id="node8" class="node">
<title>7</title>
<polygon fill="none" stroke="#000000" points="920.0232,-300.17 920.0232,-324.3337 889.5096,-341.4199 846.3569,-341.4199 815.8433,-324.3337 815.8433,-300.17 846.3569,-283.0837 889.5096,-283.0837 920.0232,-300.17"/>
<text text-anchor="start" x="836.5292" y="-316.0518" font-family="Times,serif" font-size="14.00" fill="#000000">7 </text>
<text text-anchor="middle" x="867.9332" y="-301.0518" font-family="Times,serif" font-size="14.00" fill="#000000">FLOAT</text>
</g>
<!-- 7&#45;&gt;7 -->
<g id="edge10" class="edge">
<title>7&#45;&gt;7</title>
<path fill="none" stroke="#000000" d="M920.1691,-321.9591C930.565,-320.8665 937.9782,-317.6307 937.9782,-312.2518 937.9782,-308.806 934.9358,-306.2397 930.0159,-304.5529"/>
<polygon fill="#000000" stroke="#000000" points="930.6669,-301.1137 920.1691,-302.5446 929.2679,-307.9725 930.6669,-301.1137"/>
<text text-anchor="middle" x="956.9782" y="-308.5518" font-family="Times,serif" font-size="14.00" fill="#000000">[0..9]</text>
</g>
<!-- 7&#45;&gt;11 -->
<g id="edge11" class="edge">
<title>7&#45;&gt;11</title>
<path fill="none" stroke="#000000" d="M848.9044,-283.089C839.8632,-269.2327 829.159,-252.8279 820.4624,-239.4998"/>
<polygon fill="#000000" stroke="#000000" points="823.2034,-237.2956 814.8075,-230.8334 817.341,-241.1209 823.2034,-237.2956"/>
<text text-anchor="middle" x="852.9332" y="-253.9679" font-family="Times,serif" font-size="14.00" fill="#000000">[E,e]</text>
</g>
<!-- 8 -->
<g id="node9" class="node">
<title>8</title>
<ellipse fill="none" stroke="#000000" cx="895.9332" cy="-651.6325" rx="27" ry="18"/>
<text text-anchor="middle" x="895.9332" y="-647.9325" font-family="Times,serif" font-size="14.00" fill="#000000">8</text>
</g>
<!-- 8&#45;&gt;1 -->
<g id="edge13" class="edge">
<title>8&#45;&gt;1</title>
<path fill="none" stroke="#000000" d="M869.2706,-647.8451C830.4378,-642.1114 756.1644,-630.3229 693.9332,-615.6325 635.839,-601.9188 571.2207,-582.7088 522.3721,-567.3581"/>
<polygon fill="#000000" stroke="#000000" points="523.409,-564.0152 512.8192,-564.3422 521.3016,-570.6905 523.409,-564.0152"/>
<text text-anchor="middle" x="769.4332" y="-604.4325" font-family="Times,serif" font-size="14.00" fill="#000000">[#009..#010,#013, ]</text>
</g>
<!-- 8&#45;&gt;2 -->
<g id="edge15" class="edge">
<title>8&#45;&gt;2</title>
<path fill="none" stroke="#000000" d="M880.9163,-636.3981C867.101,-622.3827 845.9966,-600.9725 827.384,-582.0903"/>
<polygon fill="#000000" stroke="#000000" points="829.6393,-579.3925 820.1266,-574.7278 824.654,-584.3065 829.6393,-579.3925"/>
<text text-anchor="middle" x="876.9332" y="-604.4325" font-family="Times,serif" font-size="14.00" fill="#000000">[0..9]</text>
</g>
<!-- 8&#45;&gt;3 -->
<g id="edge17" class="edge">
<title>8&#45;&gt;3</title>
<path fill="none" stroke="#000000" d="M916.2953,-639.5208C925.9585,-633.1667 937.2593,-624.8017 945.9332,-615.6325 956.6805,-604.2717 966.3999,-590.1174 974.174,-577.2674"/>
<polygon fill="#000000" stroke="#000000" points="977.1992,-579.0275 979.234,-568.6299 971.1593,-575.4892 977.1992,-579.0275"/>
<text text-anchor="middle" x="999.9332" y="-604.4325" font-family="Times,serif" font-size="14.00" fill="#000000">[A..Z,_,a..z]</text>
</g>
<!-- 8&#45;&gt;4 -->
<g id="edge16" class="edge">
<title>8&#45;&gt;4</title>
<path fill="none" stroke="#000000" d="M869.1243,-649.0345C787.945,-641.0215 537.7559,-615.2506 331.9332,-582.6325 271.1325,-572.997 200.9551,-558.6284 159.6314,-549.8299"/>
<polygon fill="#000000" stroke="#000000" points="160.2814,-546.3898 149.7703,-547.7192 158.8163,-553.2348 160.2814,-546.3898"/>
<text text-anchor="middle" x="572.9332" y="-604.4325" font-family="Times,serif" font-size="14.00" fill="#000000">[&quot;]</text>
</g>
<!-- 8&#45;&gt;9 -->
<g id="edge12" class="edge">
<title>8&#45;&gt;9</title>
<path fill="none" stroke="#000000" d="M900.1165,-633.8213C906.0865,-605.4549 915.249,-548.427 904.9332,-501.5036 900.7121,-482.3031 891.422,-462.2234 883.2073,-446.9734"/>
<polygon fill="#000000" stroke="#000000" points="886.2151,-445.1807 878.2863,-438.1532 880.1021,-448.5913 886.2151,-445.1807"/>
<text text-anchor="middle" x="917.9332" y="-538.3681" font-family="Times,serif" font-size="14.00" fill="#000000">[.]</text>
</g>
<!-- 12 -->
<g id="node13" class="node">
<title>12</title>
<ellipse fill="none" stroke="#000000" cx="1195.9332" cy="-542.0681" rx="27" ry="18"/>
<text text-anchor="middle" x="1195.9332" y="-538.3681" font-family="Times,serif" font-size="14.00" fill="#000000">12</text>
</g>
<!-- 8&#45;&gt;12 -->
<g id="edge14" class="edge">
<title>8&#45;&gt;12</title>
<path fill="none" stroke="#000000" d="M923.1473,-649.9085C973.5277,-645.6107 1083.177,-630.9899 1159.9332,-582.6325 1166.6153,-578.4228 1172.7832,-572.6171 1178.0566,-566.7133"/>
<polygon fill="#000000" stroke="#000000" points="1180.975,-568.6766 1184.6574,-558.7423 1175.5836,-564.2119 1180.975,-568.6766"/>
<text text-anchor="middle" x="1127.9332" y="-604.4325" font-family="Times,serif" font-size="14.00" fill="#000000">[/]</text>
</g>
<!-- 9&#45;&gt;7 -->
<g id="edge18" class="edge">
<title>9&#45;&gt;7</title>
<path fill="none" stroke="#000000" d="M867.9332,-403.3928C867.9332,-389.3193 867.9332,-369.245 867.9332,-351.5167"/>
<polygon fill="#000000" stroke="#000000" points="871.4333,-351.4126 867.9332,-341.4127 864.4333,-351.4127 871.4333,-351.4126"/>
<text text-anchor="middle" x="886.9332" y="-363.1358" font-family="Times,serif" font-size="14.00" fill="#000000">[0..9]</text>
</g>
<!-- 10 -->
<g id="node11" class="node">
<title>10</title>
<ellipse fill="none" stroke="#000000" cx="772.9332" cy="-127.1679" rx="27" ry="18"/>
<text text-anchor="middle" x="772.9332" y="-123.4679" font-family="Times,serif" font-size="14.00" fill="#000000">10</text>
</g>
<!-- 10&#45;&gt;6 -->
<g id="edge19" class="edge">
<title>10&#45;&gt;6</title>
<path fill="none" stroke="#000000" d="M775.9833,-109.0124C777.8516,-99.1743 780.5385,-86.8742 783.9332,-76.1679 784.8015,-73.4297 785.7696,-70.6319 786.7984,-67.8332"/>
<polygon fill="#000000" stroke="#000000" points="790.1047,-68.988 790.4738,-58.3996 783.5822,-66.4468 790.1047,-68.988"/>
<text text-anchor="middle" x="802.9332" y="-79.9679" font-family="Times,serif" font-size="14.00" fill="#000000">[0..9]</text>
</g>
<!-- 11&#45;&gt;6 -->
<g id="edge21" class="edge">
<title>11&#45;&gt;6</title>
<path fill="none" stroke="#000000" d="M814.4318,-197.2094C817.4755,-191.3913 820.392,-184.6966 821.9332,-178.1679 832.3487,-134.0473 830.1641,-120.7477 821.9332,-76.1679 821.4365,-73.4772 820.7925,-70.7415 820.0448,-68.0118"/>
<polygon fill="#000000" stroke="#000000" points="823.3094,-66.7266 816.9602,-58.2449 816.6344,-68.8347 823.3094,-66.7266"/>
<text text-anchor="middle" x="848.9332" y="-123.4679" font-family="Times,serif" font-size="14.00" fill="#000000">[0..9]</text>
</g>
<!-- 11&#45;&gt;10 -->
<g id="edge20" class="edge">
<title>11&#45;&gt;10</title>
<path fill="none" stroke="#000000" d="M796.9237,-196.6548C794.6335,-190.7998 792.1185,-184.2234 789.9332,-178.1679 787.2018,-170.5988 784.3819,-162.3432 781.843,-154.7221"/>
<polygon fill="#000000" stroke="#000000" points="785.1525,-153.5821 778.6983,-145.1801 778.5043,-155.7732 785.1525,-153.5821"/>
<text text-anchor="middle" x="805.9332" y="-166.9679" font-family="Times,serif" font-size="14.00" fill="#000000">[+,&#45;]</text>
</g>
<!-- 12&#45;&gt;5 -->
<g id="edge22" class="edge">
<title>12&#45;&gt;5</title>
<path fill="none" stroke="#000000" d="M1195.9332,-524.0058C1195.9332,-507.3972 1195.9332,-482.1993 1195.9332,-460.9337"/>
<polygon fill="#000000" stroke="#000000" points="1199.4333,-460.8649 1195.9332,-450.8649 1192.4333,-460.8649 1199.4333,-460.8649"/>
<text text-anchor="middle" x="1209.9332" y="-472.3036" font-family="Times,serif" font-size="14.00" fill="#000000">[*,/]</text>
</g>
<!-- 13&#45;&gt;4 -->
<g id="edge23" class="edge">
<title>13&#45;&gt;4</title>
<path fill="none" stroke="#000000" d="M157.1551,-439.2948C150.7221,-459.1956 140.2494,-491.5932 132.7825,-514.6926"/>
<polygon fill="#000000" stroke="#000000" points="129.4334,-513.6742 129.6878,-524.266 136.0941,-515.8273 129.4334,-513.6742"/>
<text text-anchor="middle" x="160.4332" y="-472.3036" font-family="Times,serif" font-size="14.00" fill="#000000">[&quot;,\]</text>
</g>
<!-- 14 -->
<g id="node15" class="node">
<title>14</title>
<polygon fill="none" stroke="#000000" points="942.2999,-721.1767 942.2999,-736.0884 915.1389,-746.6325 876.7276,-746.6325 849.5666,-736.0884 849.5666,-721.1767 876.7276,-710.6325 915.1389,-710.6325 942.2999,-721.1767"/>
<polygon fill="none" stroke="#000000" points="946.2944,-718.4373 946.2944,-738.8277 915.8861,-750.6325 875.9804,-750.6325 845.5721,-738.8277 845.5721,-718.4373 875.9804,-706.6325 915.8861,-706.6325 946.2944,-718.4373"/>
<text text-anchor="middle" x="895.9332" y="-724.9325" font-family="Times,serif" font-size="14.00" fill="#000000">START</text>
</g>
<!-- 14&#45;&gt;8 -->
<g id="edge24" class="edge">
<title>14&#45;&gt;8</title>
<path fill="none" stroke="#000000" d="M895.9332,-706.3609C895.9332,-698.0878 895.9332,-688.5908 895.9332,-679.8555"/>
<polygon fill="#000000" stroke="#000000" points="899.4333,-679.7114 895.9332,-669.7115 892.4333,-679.7115 899.4333,-679.7114"/>
</g>
</g>
</svg>
